<svg xmlns="http://www.w3.org/2000/svg" xmlns:xl="http://www.w3.org/1999/xlink" width="385" height="491.5" version="1.1" viewBox="59.5 134.5 385 491.5"><defs><filter id="Shadow" x="21" y="85.35" filterUnits="userSpaceOnUse"><feGaussianBlur in="SourceAlpha" result="blur" stdDeviation="1.308"/><feOffset dx="0" dy="2" in="blur" result="offset"/><feFlood flood-color="#000" flood-opacity=".5" result="flood"/><feComposite in="flood" in2="offset" operator="in"/></filter><marker id="FilledArrow_Marker" stroke-linejoin="miter" stroke-miterlimit="10" color="#008f00" markerHeight="6" markerUnits="strokeWidth" markerWidth="7" orient="auto" overflow="visible" viewBox="-1 -3 7 6"><g><path fill="currentColor" stroke="currentColor" stroke-width="1" d="M 4.8 0 L 0 -1.8 L 0 1.8 Z"/></g></marker><marker id="FilledArrow_Marker_2" stroke-linejoin="miter" stroke-miterlimit="10" color="#005493" markerHeight="6" markerUnits="strokeWidth" markerWidth="7" orient="auto" overflow="visible" viewBox="-1 -3 7 6"><g><path fill="currentColor" stroke="currentColor" stroke-width="1" d="M 4.8 0 L 0 -1.8 L 0 1.8 Z"/></g></marker></defs><g id="Canevas_1" fill="none" fill-opacity="1" stroke="none" stroke-dasharray="none" stroke-opacity="1"><title>Canevas 1</title><rect width="385" height="491.5" x="59.5" y="134.5" fill="#fff"/><g id="Canevas_1_Calque_1"><title>Calque 1</title><g id="Graphic_88_shadow" filter="url(#Shadow)"><rect width="162" height="36" x="72" y="576" fill="#fff"/></g><g id="Graphic_126_shadow" filter="url(#Shadow)"><rect width="162" height="36" x="270" y="576" fill="#fff"/></g><g id="Graphic_32_shadow" filter="url(#Shadow)"><rect width="144" height="288" x="288" y="216" fill="#fff"/><rect width="144" height="288" x="288" y="216" stroke="#000" stroke-linecap="round" stroke-linejoin="round" stroke-width="1"/></g><g id="Graphic_99_shadow" filter="url(#Shadow)"><rect width="144" height="288" x="72" y="216" fill="#fff"/><rect width="144" height="288" x="72" y="216" stroke="#000" stroke-linecap="round" stroke-linejoin="round" stroke-width="1"/></g><g id="Graphic_10_shadow" filter="url(#Shadow)"><path fill="#0096ff" fill-opacity=".3" d="M 95 450 L 193 450 C 195.76142 450 198 452.2386 198 455 L 198 481 C 198 483.7614 195.76142 486 193 486 L 95 486 C 92.23858 486 90 483.7614 90 481 L 90 455 C 90 452.2386 92.23858 450 95 450 Z"/><path stroke="#000" stroke-linecap="round" stroke-linejoin="round" stroke-width="1" d="M 95 450 L 193 450 C 195.76142 450 198 452.2386 198 455 L 198 481 C 198 483.7614 195.76142 486 193 486 L 95 486 C 92.23858 486 90 483.7614 90 481 L 90 455 C 90 452.2386 92.23858 450 95 450 Z"/></g><g id="Graphic_11_shadow" filter="url(#Shadow)"><path fill="#0096ff" fill-opacity=".3" d="M 95 360 L 193 360 C 195.76142 360 198 362.23858 198 365 L 198 391 C 198 393.76142 195.76142 396 193 396 L 95 396 C 92.23858 396 90 393.76142 90 391 L 90 365 C 90 362.23858 92.23858 360 95 360 Z"/><path stroke="#000" stroke-linecap="round" stroke-linejoin="round" stroke-width="1" d="M 95 360 L 193 360 C 195.76142 360 198 362.23858 198 365 L 198 391 C 198 393.76142 195.76142 396 193 396 L 95 396 C 92.23858 396 90 393.76142 90 391 L 90 365 C 90 362.23858 92.23858 360 95 360 Z"/></g><g id="Graphic_12_shadow" filter="url(#Shadow)"><path fill="#0096ff" fill-opacity=".3" d="M 95 270 L 193 270 C 195.76142 270 198 272.23858 198 275 L 198 301 C 198 303.76142 195.76142 306 193 306 L 95 306 C 92.23858 306 90 303.76142 90 301 L 90 275 C 90 272.23858 92.23858 270 95 270 Z"/><path stroke="#000" stroke-linecap="round" stroke-linejoin="round" stroke-width="1" d="M 95 270 L 193 270 C 195.76142 270 198 272.23858 198 275 L 198 301 C 198 303.76142 195.76142 306 193 306 L 95 306 C 92.23858 306 90 303.76142 90 301 L 90 275 C 90 272.23858 92.23858 270 95 270 Z"/></g><g id="Graphic_123_shadow" filter="url(#Shadow)"><rect width="90" height="18" x="315" y="279" fill="#ff2600" fill-opacity=".3"/><rect width="90" height="18" x="315" y="279" stroke="#000" stroke-linecap="round" stroke-linejoin="round" stroke-width="1"/></g><g id="Graphic_130_shadow" filter="url(#Shadow)"><rect width="90" height="18" x="315" y="459" fill="#008f00" fill-opacity=".3"/><rect width="90" height="18" x="315" y="459" stroke="#000" stroke-linecap="round" stroke-linejoin="round" stroke-width="1"/></g><g id="Graphic_139_shadow" filter="url(#Shadow)"><rect width="90" height="18" x="315" y="351" fill="#ff2600" fill-opacity=".3"/><rect width="90" height="18" x="315" y="351" stroke="#000" stroke-linecap="round" stroke-linejoin="round" stroke-width="1"/></g><g id="Graphic_137_shadow" filter="url(#Shadow)"><rect width="90" height="18" x="315" y="387" fill="#ff2600" fill-opacity=".3"/><rect width="90" height="18" x="315" y="387" stroke="#000" stroke-linecap="round" stroke-linejoin="round" stroke-width="1"/></g><g id="Graphic_135_shadow" filter="url(#Shadow)"><rect width="90" height="18" x="315" y="423" fill="#ff2600" fill-opacity=".3"/><rect width="90" height="18" x="315" y="423" stroke="#000" stroke-linecap="round" stroke-linejoin="round" stroke-width="1"/></g><g id="Graphic_132_shadow" filter="url(#Shadow)"><rect width="90" height="18" x="315" y="315" fill="#ff2600" fill-opacity=".3"/><rect width="90" height="18" x="315" y="315" stroke="#000" stroke-linecap="round" stroke-linejoin="round" stroke-width="1"/></g><g id="Graphic_88"><rect width="162" height="36" x="72" y="576" fill="#fff"/></g><g id="Graphic_126"><rect width="162" height="36" x="270" y="576" fill="#fff"/></g><g id="Graphic_32"><rect width="144" height="288" x="288" y="216" fill="#fff"/><rect width="144" height="288" x="288" y="216" stroke="#000" stroke-linecap="round" stroke-linejoin="round" stroke-width="1"/><text fill="#000" transform="translate(293 221)"><tspan x="23.428" y="14" fill="#000" font-family="Helvetica" font-size="14">Closed tickets</tspan> <tspan x="40.984" y="35" fill="#000" font-family="Helvetica" font-size="12">resolution</tspan></text></g><g id="Graphic_99"><rect width="144" height="288" x="72" y="216" fill="#fff"/><rect width="144" height="288" x="72" y="216" stroke="#000" stroke-linecap="round" stroke-linejoin="round" stroke-width="1"/><text fill="#000" transform="translate(77 221)"><tspan x="28.093" y="14" fill="#000" font-family="Helvetica" font-size="14">Open tickets</tspan> <tspan x="37.316" y="35" fill="#000" font-family="Helvetica" font-size="12">triage state</tspan></text></g><g id="Graphic_10"><path fill="#0096ff" fill-opacity=".3" d="M 95 450 L 193 450 C 195.76142 450 198 452.2386 198 455 L 198 481 C 198 483.7614 195.76142 486 193 486 L 95 486 C 92.23858 486 90 483.7614 90 481 L 90 455 C 90 452.2386 92.23858 450 95 450 Z"/><path stroke="#000" stroke-linecap="round" stroke-linejoin="round" stroke-width="1" d="M 95 450 L 193 450 C 195.76142 450 198 452.2386 198 455 L 198 481 C 198 483.7614 195.76142 486 193 486 L 95 486 C 92.23858 486 90 483.7614 90 481 L 90 455 C 90 452.2386 92.23858 450 95 450 Z"/><text fill="#000" transform="translate(95 454)"><tspan x="22.987" y="11" fill="#000" font-family="Helvetica" font-size="12">Ready for </tspan> <tspan x="27.323" y="25" fill="#000" font-family="Helvetica" font-size="12">Checkin</tspan></text></g><g id="Graphic_11"><path fill="#0096ff" fill-opacity=".3" d="M 95 360 L 193 360 C 195.76142 360 198 362.23858 198 365 L 198 391 C 198 393.76142 195.76142 396 193 396 L 95 396 C 92.23858 396 90 393.76142 90 391 L 90 365 C 90 362.23858 92.23858 360 95 360 Z"/><path stroke="#000" stroke-linecap="round" stroke-linejoin="round" stroke-width="1" d="M 95 360 L 193 360 C 195.76142 360 198 362.23858 198 365 L 198 391 C 198 393.76142 195.76142 396 193 396 L 95 396 C 92.23858 396 90 393.76142 90 391 L 90 365 C 90 362.23858 92.23858 360 95 360 Z"/><text fill="#000" transform="translate(95 371)"><tspan x="23.983" y="11" fill="#000" font-family="Helvetica" font-size="12">Accepted</tspan></text></g><g id="Graphic_12"><path fill="#0096ff" fill-opacity=".3" d="M 95 270 L 193 270 C 195.76142 270 198 272.23858 198 275 L 198 301 C 198 303.76142 195.76142 306 193 306 L 95 306 C 92.23858 306 90 303.76142 90 301 L 90 275 C 90 272.23858 92.23858 270 95 270 Z"/><path stroke="#000" stroke-linecap="round" stroke-linejoin="round" stroke-width="1" d="M 95 270 L 193 270 C 195.76142 270 198 272.23858 198 275 L 198 301 C 198 303.76142 195.76142 306 193 306 L 95 306 C 92.23858 306 90 303.76142 90 301 L 90 275 C 90 272.23858 92.23858 270 95 270 Z"/><text fill="#000" transform="translate(95 281)"><tspan x="17.318" y="11" fill="#000" font-family="Helvetica" font-size="12">Unreviewed</tspan></text></g><g id="Graphic_123"><rect width="90" height="18" x="315" y="279" fill="#ff2600" fill-opacity=".3"/><rect width="90" height="18" x="315" y="279" stroke="#000" stroke-linecap="round" stroke-linejoin="round" stroke-width="1"/><text fill="#000" transform="translate(320 281)"><tspan x="15.982" y="11" fill="#000" font-family="Helvetica" font-size="12">duplicate</tspan></text></g><g id="Graphic_130"><rect width="90" height="18" x="315" y="459" fill="#008f00" fill-opacity=".3"/><rect width="90" height="18" x="315" y="459" stroke="#000" stroke-linecap="round" stroke-linejoin="round" stroke-width="1"/><text fill="#000" transform="translate(320 461)"><tspan x="27.326" y="11" fill="#000" font-family="Helvetica" font-size="12">fixed</tspan></text></g><g id="Graphic_139"><rect width="90" height="18" x="315" y="351" fill="#ff2600" fill-opacity=".3"/><rect width="90" height="18" x="315" y="351" stroke="#000" stroke-linecap="round" stroke-linejoin="round" stroke-width="1"/><text fill="#000" transform="translate(320 353)"><tspan x="22.99" y="11" fill="#000" font-family="Helvetica" font-size="12">invalid</tspan></text></g><g id="Graphic_137"><rect width="90" height="18" x="315" y="387" fill="#ff2600" fill-opacity=".3"/><rect width="90" height="18" x="315" y="387" stroke="#000" stroke-linecap="round" stroke-linejoin="round" stroke-width="1"/><text fill="#000" transform="translate(320 389)"><tspan x="13.979" y="11" fill="#000" font-family="Helvetica" font-size="12">needsinfo</tspan></text></g><g id="Graphic_135"><rect width="90" height="18" x="315" y="423" fill="#ff2600" fill-opacity=".3"/><rect width="90" height="18" x="315" y="423" stroke="#000" stroke-linecap="round" stroke-linejoin="round" stroke-width="1"/><text fill="#000" transform="translate(320 425)"><tspan x="8.995" y="11" fill="#000" font-family="Helvetica" font-size="12">worksforme</tspan></text></g><g id="Graphic_132"><rect width="90" height="18" x="315" y="315" fill="#ff2600" fill-opacity=".3"/><rect width="90" height="18" x="315" y="315" stroke="#000" stroke-linecap="round" stroke-linejoin="round" stroke-width="1"/><text fill="#000" transform="translate(320 317)"><tspan x="21.326" y="11" fill="#000" font-family="Helvetica" font-size="12">wontfix</tspan></text></g><g id="Line_33"><line x1="72" x2="216" y1="243" y2="243" stroke="#000" stroke-linecap="round" stroke-linejoin="round" stroke-width="1"/></g><g id="Line_36"><line x1="288" x2="432" y1="243" y2="243" stroke="#000" stroke-linecap="round" stroke-linejoin="round" stroke-width="1"/></g><g id="Graphic_127"><rect width="81" height="18" x="351" y="594" fill="#008f00" fill-opacity=".3"/><text fill="#000" transform="translate(356 596)"><tspan x="7.817" y="11" fill="#000" font-family="Helvetica" font-size="12">completed</tspan></text></g><g id="Graphic_125"><rect width="81" height="18" x="351" y="576" fill="#ff2600" fill-opacity=".3"/><text fill="#000" transform="translate(356 578)"><tspan x="14.148" y="11" fill="#000" font-family="Helvetica" font-size="12">stopped</tspan></text></g><g id="Graphic_129"><rect width="81" height="18" x="270" y="594" fill="#0096ff" fill-opacity=".3"/><text fill="#000" transform="translate(275 596)"><tspan x="5.819" y="11" fill="#000" font-family="Helvetica" font-size="12">in progress</tspan></text></g><g id="Line_42"><line x1="183.6" x2="208.5" y1="585" y2="585" stroke="#008f00" stroke-linecap="round" stroke-linejoin="round" stroke-width="2" marker-end="url(#FilledArrow_Marker)"/></g><g id="Graphic_43"><text fill="#008f00" transform="translate(72 578)"><tspan x="17.174" y="11" fill="#008f00" font-family="Helvetica" font-size="12">Ticket triagers</tspan></text></g><g id="Line_44"><line x1="183.6" x2="208.5" y1="603" y2="603" stroke="#005493" stroke-linecap="round" stroke-linejoin="round" stroke-width="2" marker-end="url(#FilledArrow_Marker_2)"/></g><g id="Graphic_45"><text fill="#005493" transform="translate(72 596)"><tspan x="52.313" y="11" fill="#005493" font-family="Helvetica" font-size="12">Mergers</tspan></text></g><g id="Graphic_128"><rect width="81" height="18" x="270" y="576" fill="#fff"/><text fill="#000" transform="translate(275 578)"><tspan x="19.492" y="11" fill="#000" font-family="Helvetica" font-size="12">status</tspan></text></g><g id="Line_124"><line x1="252" x2="302.1" y1="288" y2="288" stroke="#008f00" stroke-linecap="round" stroke-linejoin="round" stroke-width="2" marker-end="url(#FilledArrow_Marker)"/></g><g id="Line_140"><line x1="252" x2="306.505" y1="288" y2="350.292" stroke="#008f00" stroke-linecap="round" stroke-linejoin="round" stroke-width="2" marker-end="url(#FilledArrow_Marker)"/></g><g id="Line_138"><line x1="252" x2="308.5" y1="288" y2="384.857" stroke="#008f00" stroke-linecap="round" stroke-linejoin="round" stroke-width="2" marker-end="url(#FilledArrow_Marker)"/></g><g id="Line_136"><line x1="252" x2="309.829" y1="288" y2="420.182" stroke="#008f00" stroke-linecap="round" stroke-linejoin="round" stroke-width="2" marker-end="url(#FilledArrow_Marker)"/></g><g id="Line_131"><line x1="198" x2="302.1" y1="468" y2="468" stroke="#005493" stroke-linecap="round" stroke-linejoin="round" stroke-width="2" marker-end="url(#FilledArrow_Marker_2)"/></g><g id="Line_54"><line x1="144" x2="144" y1="306" y2="347.1" stroke="#008f00" stroke-linecap="round" stroke-linejoin="round" stroke-width="2" marker-end="url(#FilledArrow_Marker)"/></g><g id="Line_82"><line x1="198" x2="252" y1="288" y2="288" stroke="#008f00" stroke-linecap="round" stroke-linejoin="round" stroke-width="2"/></g><g id="Line_60"><line x1="144" x2="144" y1="396" y2="437.1" stroke="#008f00" stroke-linecap="round" stroke-linejoin="round" stroke-width="2" marker-end="url(#FilledArrow_Marker)"/></g><g id="Graphic_89"><rect width="243" height="54" x="189" y="144" fill="#fff"/><path stroke="#aaa" stroke-dasharray="4 4" stroke-linecap="round" stroke-linejoin="round" stroke-width="1" d="M 432 198 L 189 198 L 189 144 L 432 144 Z"/><text fill="#797979" transform="translate(193 150)"><tspan x="19.789" y="11" fill="#797979" font-family="Helvetica" font-size="12">The ticket was already reported, was </tspan> <tspan x=".802" y="25" fill="#797979" font-family="Helvetica" font-size="12">already rejected, isn&apos;t a bug, doesn&apos;t contain </tspan> <tspan x="1.279" y="39" fill="#797979" font-family="Helvetica" font-size="12">enough information, or can&apos;t be reproduced.</tspan></text></g><g id="Line_90"><line x1="252" x2="252" y1="278.5" y2="198" stroke="#aaa" stroke-dasharray="4 4" stroke-linecap="round" stroke-linejoin="round" stroke-width="1"/></g><g id="Graphic_91"><path stroke="#aaa" stroke-dasharray="4 4" stroke-linecap="round" stroke-linejoin="round" stroke-width="1" d="M 258.36395 281.63605 C 261.8787 285.15076 261.8787 290.84924 258.36395 294.36395 C 254.84924 297.8787 249.15076 297.8787 245.63605 294.36395 C 242.1213 290.84924 242.1213 285.15076 245.63605 281.63605 C 249.15076 278.1213 254.84924 278.1213 258.36395 281.63605"/></g><g id="Graphic_96"><rect width="99" height="54" x="72" y="144" fill="#fff"/><path stroke="#aaa" stroke-dasharray="4 4" stroke-linecap="round" stroke-linejoin="round" stroke-width="1" d="M 171 198 L 72 198 L 72 144 L 171 144 Z"/><text fill="#797979" transform="translate(76 150)"><tspan x="8.486" y="11" fill="#797979" font-family="Helvetica" font-size="12">The ticket is a </tspan> <tspan x="4.464" y="25" fill="#797979" font-family="Helvetica" font-size="12">bug and should </tspan> <tspan x="22.818" y="39" fill="#797979" font-family="Helvetica" font-size="12">be fixed.</tspan></text></g><g id="Graphic_97"><path stroke="#aaa" stroke-dasharray="4 4" stroke-linecap="round" stroke-linejoin="round" stroke-width="1" d="M 150.36395 317.63605 C 153.87869 321.15076 153.87869 326.84924 150.36395 330.36395 C 146.84924 333.8787 141.15076 333.8787 137.63605 330.36395 C 134.12131 326.84924 134.12131 321.15076 137.63605 317.63605 C 141.15076 314.1213 146.84924 314.1213 150.36395 317.63605"/></g><g id="Line_98"><path stroke="#aaa" stroke-dasharray="4 4" stroke-linecap="round" stroke-linejoin="round" stroke-width="1" d="M 134.5 324 L 81 324 L 81 198"/></g><g id="Graphic_102"><rect width="342" height="36" x="72" y="522" fill="#fff"/><path stroke="#aaa" stroke-dasharray="4 4" stroke-linecap="round" stroke-linejoin="round" stroke-width="1" d="M 414 558 L 72 558 L 72 522 L 414 522 Z"/><text fill="#797979" transform="translate(76 526)"><tspan x="7.241" y="11" fill="#797979" font-family="Helvetica" font-size="12">The ticket has a patch which applies cleanly and includes all </tspan> <tspan x="26.592" y="25" fill="#797979" font-family="Helvetica" font-size="12">needed tests and docs. A merger can commit it as is.</tspan></text></g><g id="Graphic_103"><path stroke="#aaa" stroke-dasharray="4 4" stroke-linecap="round" stroke-linejoin="round" stroke-width="1" d="M 150.36395 407.63605 C 153.87869 411.15076 153.87869 416.84924 150.36395 420.36395 C 146.84924 423.8787 141.15076 423.8787 137.63605 420.36395 C 134.12131 416.84924 134.12131 411.15076 137.63605 407.63605 C 141.15076 404.1213 146.84924 404.1213 150.36395 407.63605"/></g><g id="Line_104"><path stroke="#aaa" stroke-dasharray="4 4" stroke-linecap="round" stroke-linejoin="round" stroke-width="1" d="M 134.5 414 L 81 414 L 81 522"/></g><g id="Line_151"><line x1="252" x2="303.8" y1="288" y2="317.6" stroke="#008f00" stroke-linecap="round" stroke-linejoin="round" stroke-width="2" marker-end="url(#FilledArrow_Marker)"/></g></g></g></svg>