<svg xmlns="http://www.w3.org/2000/svg" xmlns:xlink="http://www.w3.org/1999/xlink" id="svg5" width="15" height="30" version="1.1" viewBox="0 0 512 1024"><!--!Font Awesome Free 6.7.2 by @fontawesome - https://fontawesome.com License - https://fontawesome.com/license/free Copyright 2025 Fonticons, Inc.--><defs id="defs2"><g id="previous"><path id="path2" d="M512 256A256 256 0 1 0 0 256a256 256 0 1 0 512 0zM271 135c9.4-9.4 24.6-9.4 33.9 0s9.4 24.6 0 33.9l-87 87 87 87c9.4 9.4 9.4 24.6 0 33.9s-24.6 9.4-33.9 0L167 273c-9.4-9.4-9.4-24.6 0-33.9L271 135z"/></g><g id="next"><path id="path1" d="M0 256a256 256 0 1 0 512 0A256 256 0 1 0 0 256zM241 377c-9.4 9.4-24.6 9.4-33.9 0s-9.4-24.6 0-33.9l87-87-87-87c-9.4-9.4-9.4-24.6 0-33.9s24.6-9.4 33.9 0L345 239c9.4 9.4 9.4 24.6 0 33.9L241 377z"/></g></defs><use id="use5" x="0" y="512" fill="#000" xlink:href="#next"/><use id="use2" x="0" y="0" fill="#333" xlink:href="#previous"/></svg>