<svg xmlns="http://www.w3.org/2000/svg" xmlns:xlink="http://www.w3.org/1999/xlink" width="16" height="128" viewBox="0 0 512 4096"><!--!Font Awesome Free 6.7.2 by @fontawesome - https://fontawesome.com License - https://fontawesome.com/license/free Copyright 2025 Fonticons, Inc.--><defs><g id="up"><path d="M256 512A256 256 0 1 0 256 0a256 256 0 1 0 0 512zM385 215c9.4 9.4 9.4 24.6 0 33.9s-24.6 9.4-33.9 0l-71-71L280 392c0 13.3-10.7 24-24 24s-24-10.7-24-24l0-214.1-71 71c-9.4 9.4-24.6 9.4-33.9 0s-9.4-24.6 0-33.9L239 103c9.4-9.4 24.6-9.4 33.9 0L385 215z"/></g><g id="down"><path d="M256 0a256 256 0 1 0 0 512A256 256 0 1 0 256 0zM127 297c-9.4-9.4-9.4-24.6 0-33.9s24.6-9.4 33.9 0l71 71L232 120c0-13.3 10.7-24 24-24s24 10.7 24 24l0 214.1 71-71c9.4-9.4 24.6-9.4 33.9 0s9.4 24.6 0 33.9L273 409c-9.4 9.4-24.6 9.4-33.9 0L127 297z"/></g><g id="right"><path d="M0 256a256 256 0 1 0 512 0A256 256 0 1 0 0 256zM297 385c-9.4 9.4-24.6 9.4-33.9 0s-9.4-24.6 0-33.9l71-71L120 280c-13.3 0-24-10.7-24-24s10.7-24 24-24l214.1 0-71-71c-9.4-9.4-9.4-24.6 0-33.9s24.6-9.4 33.9 0L409 239c9.4 9.4 9.4 24.6 0 33.9L297 385z"/></g><g id="left"><path d="M512 256A256 256 0 1 0 0 256a256 256 0 1 0 512 0zM215 127c9.4-9.4 24.6-9.4 33.9 0s9.4 24.6 0 33.9l-71 71L392 232c13.3 0 24 10.7 24 24s-10.7 24-24 24l-214.1 0 71 71c9.4 9.4 9.4 24.6 0 33.9s-24.6 9.4-33.9 0L103 273c-9.4-9.4-9.4-24.6 0-33.9L215 127z"/></g></defs><use x="0" y="0" fill="#666" xlink:href="#up"/><use x="0" y="512" fill="#447e9b" xlink:href="#up"/><use x="0" y="1024" fill="#666" xlink:href="#down"/><use x="0" y="1536" fill="#447e9b" xlink:href="#down"/><use x="0" y="2048" fill="#666" xlink:href="#left"/><use x="0" y="2560" fill="#447e9b" xlink:href="#left"/><use x="0" y="3072" fill="#666" xlink:href="#right"/><use x="0" y="3584" fill="#447e9b" xlink:href="#right"/></svg>